# Smooth compact 400m-style red track surface. All faces wind upward.
v -14.768250 12.775000 0.012000
v 14.768250 12.775000 0.012000
v 14.768250 22.535000 0.012000
v -14.768250 22.535000 0.012000
v 14.768250 -12.775000 0.012000
v -14.768250 -12.775000 0.012000
v -14.768250 -22.535000 0.012000
v 14.768250 -22.535000 0.012000
v 14.768250 -12.775000 0.012000
v 14.768250 -22.535000 0.012000
v 14.977271 -12.773290 0.012000
v 15.136962 -22.531983 0.012000
v 15.186236 -12.768160 0.012000
v 15.505575 -22.522934 0.012000
v 15.395090 -12.759612 0.012000
v 15.873990 -22.507856 0.012000
v 15.603775 -12.747648 0.012000
v 16.242110 -22.486751 0.012000
v 15.812237 -12.732271 0.012000
v 16.609834 -22.459626 0.012000
v 16.020419 -12.713485 0.012000
v 16.977066 -22.426488 0.012000
v 16.228266 -12.691295 0.012000
v 17.343707 -22.387346 0.012000
v 16.435722 -12.665708 0.012000
v 17.709658 -22.342210 0.012000
v 16.642732 -12.636730 0.012000
v 18.074821 -22.291093 0.012000
v 16.849240 -12.604369 0.012000
v 18.439099 -22.234007 0.012000
v 17.055190 -12.568633 0.012000
v 18.802395 -22.170970 0.012000
v 17.260529 -12.529532 0.012000
v 19.164610 -22.101996 0.012000
v 17.465200 -12.487077 0.012000
v 19.525649 -22.027106 0.012000
v 17.669149 -12.441278 0.012000
v 19.885414 -21.946318 0.012000
v 17.872322 -12.392149 0.012000
v 20.243808 -21.859654 0.012000
v 18.074663 -12.339702 0.012000
v 20.600737 -21.767138 0.012000
v 18.276120 -12.283952 0.012000
v 20.956105 -21.668795 0.012000
v 18.476637 -12.224913 0.012000
v 21.309815 -21.564650 0.012000
v 18.676161 -12.162601 0.012000
v 21.661775 -21.454732 0.012000
v 18.874639 -12.097032 0.012000
v 22.011888 -21.339070 0.012000
v 19.072018 -12.028225 0.012000
v 22.360063 -21.217696 0.012000
v 19.268244 -11.956198 0.012000
v 22.706205 -21.090640 0.012000
v 19.463266 -11.880970 0.012000
v 23.050222 -20.957938 0.012000
v 19.657031 -11.802561 0.012000
v 23.392021 -20.819625 0.012000
v 19.849487 -11.720992 0.012000
v 23.731512 -20.675738 0.012000
v 20.040582 -11.636285 0.012000
v 24.068603 -20.526316 0.012000
v 20.230266 -11.548463 0.012000
v 24.403204 -20.371399 0.012000
v 20.418488 -11.457549 0.012000
v 24.735226 -20.211027 0.012000
v 20.605197 -11.363568 0.012000
v 25.064579 -20.045245 0.012000
v 20.790343 -11.266544 0.012000
v 25.391175 -19.874096 0.012000
v 20.973877 -11.166504 0.012000
v 25.714928 -19.697626 0.012000
v 21.155750 -11.063475 0.012000
v 26.035750 -19.515882 0.012000
v 21.335913 -10.957483 0.012000
v 26.353555 -19.328914 0.012000
v 21.514317 -10.848558 0.012000
v 26.668259 -19.136771 0.012000
v 21.690915 -10.736728 0.012000
v 26.979777 -18.939505 0.012000
v 21.865660 -10.622024 0.012000
v 27.288025 -18.737168 0.012000
v 22.038504 -10.504476 0.012000
v 27.592922 -18.529814 0.012000
v 22.209403 -10.384116 0.012000
v 27.894385 -18.317500 0.012000
v 22.378309 -10.260976 0.012000
v 28.192334 -18.100282 0.012000
v 22.545177 -10.135089 0.012000
v 28.486689 -17.878218 0.012000
v 22.709964 -10.006488 0.012000
v 28.777371 -17.651367 0.012000
v 22.872624 -9.875209 0.012000
v 29.064303 -17.419791 0.012000
v 23.033115 -9.741285 0.012000
v 29.347407 -17.183551 0.012000
v 23.191393 -9.604754 0.012000
v 29.626608 -16.942710 0.012000
v 23.347416 -9.465651 0.012000
v 29.901831 -16.697334 0.012000
v 23.501142 -9.324014 0.012000
v 30.173003 -16.447487 0.012000
v 23.652530 -9.179880 0.012000
v 30.440050 -16.193237 0.012000
v 23.801539 -9.033289 0.012000
v 30.702901 -15.934651 0.012000
v 23.948130 -8.884280 0.012000
v 30.961487 -15.671800 0.012000
v 24.092264 -8.732892 0.012000
v 31.215737 -15.404753 0.012000
v 24.233901 -8.579166 0.012000
v 31.465584 -15.133581 0.012000
v 24.373004 -8.423143 0.012000
v 31.710960 -14.858358 0.012000
v 24.509535 -8.264865 0.012000
v 31.951801 -14.579157 0.012000
v 24.643459 -8.104374 0.012000
v 32.188041 -14.296053 0.012000
v 24.774738 -7.941714 0.012000
v 32.419617 -14.009121 0.012000
v 24.903339 -7.776927 0.012000
v 32.646468 -13.718439 0.012000
v 25.029226 -7.610059 0.012000
v 32.868532 -13.424084 0.012000
v 25.152366 -7.441153 0.012000
v 33.085750 -13.126135 0.012000
v 25.272726 -7.270254 0.012000
v 33.298064 -12.824672 0.012000
v 25.390274 -7.097410 0.012000
v 33.505418 -12.519775 0.012000
v 25.504978 -6.922665 0.012000
v 33.707755 -12.211527 0.012000
v 25.616808 -6.746067 0.012000
v 33.905021 -11.900009 0.012000
v 25.725733 -6.567663 0.012000
v 34.097164 -11.585305 0.012000
v 25.831725 -6.387500 0.012000
v 34.284132 -11.267500 0.012000
v 25.934754 -6.205627 0.012000
v 34.465876 -10.946678 0.012000
v 26.034794 -6.022093 0.012000
v 34.642346 -10.622925 0.012000
v 26.131818 -5.836947 0.012000
v 34.813495 -10.296329 0.012000
v 26.225799 -5.650238 0.012000
v 34.979277 -9.966976 0.012000
v 26.316713 -5.462016 0.012000
v 35.139649 -9.634954 0.012000
v 26.404535 -5.272332 0.012000
v 35.294566 -9.300353 0.012000
v 26.489242 -5.081237 0.012000
v 35.443988 -8.963262 0.012000
v 26.570811 -4.888781 0.012000
v 35.587875 -8.623771 0.012000
v 26.649220 -4.695016 0.012000
v 35.726188 -8.281972 0.012000
v 26.724448 -4.499994 0.012000
v 35.858890 -7.937955 0.012000
v 26.796475 -4.303768 0.012000
v 35.985946 -7.591813 0.012000
v 26.865282 -4.106389 0.012000
v 36.107320 -7.243638 0.012000
v 26.930851 -3.907911 0.012000
v 36.222982 -6.893525 0.012000
v 26.993163 -3.708387 0.012000
v 36.332900 -6.541565 0.012000
v 27.052202 -3.507870 0.012000
v 36.437045 -6.187855 0.012000
v 27.107952 -3.306413 0.012000
v 36.535388 -5.832487 0.012000
v 27.160399 -3.104072 0.012000
v 36.627904 -5.475558 0.012000
v 27.209528 -2.900899 0.012000
v 36.714568 -5.117164 0.012000
v 27.255327 -2.696950 0.012000
v 36.795356 -4.757399 0.012000
v 27.297782 -2.492279 0.012000
v 36.870246 -4.396360 0.012000
v 27.336883 -2.286940 0.012000
v 36.939220 -4.034145 0.012000
v 27.372619 -2.080990 0.012000
v 37.002257 -3.670849 0.012000
v 27.404980 -1.874482 0.012000
v 37.059343 -3.306571 0.012000
v 27.433958 -1.667472 0.012000
v 37.110460 -2.941408 0.012000
v 27.459545 -1.460016 0.012000
v 37.155596 -2.575457 0.012000
v 27.481735 -1.252169 0.012000
v 37.194738 -2.208816 0.012000
v 27.500521 -1.043987 0.012000
v 37.227876 -1.841584 0.012000
v 27.515898 -0.835525 0.012000
v 37.255001 -1.473860 0.012000
v 27.527862 -0.626840 0.012000
v 37.276106 -1.105740 0.012000
v 27.536410 -0.417986 0.012000
v 37.291184 -0.737325 0.012000
v 27.541540 -0.209021 0.012000
v 37.300233 -0.368712 0.012000
v 27.543250 0.000000 0.012000
v 37.303250 0.000000 0.012000
v 27.541540 0.209021 0.012000
v 37.300233 0.368712 0.012000
v 27.536410 0.417986 0.012000
v 37.291184 0.737325 0.012000
v 27.527862 0.626840 0.012000
v 37.276106 1.105740 0.012000
v 27.515898 0.835525 0.012000
v 37.255001 1.473860 0.012000
v 27.500521 1.043987 0.012000
v 37.227876 1.841584 0.012000
v 27.481735 1.252169 0.012000
v 37.194738 2.208816 0.012000
v 27.459545 1.460016 0.012000
v 37.155596 2.575457 0.012000
v 27.433958 1.667472 0.012000
v 37.110460 2.941408 0.012000
v 27.404980 1.874482 0.012000
v 37.059343 3.306571 0.012000
v 27.372619 2.080990 0.012000
v 37.002257 3.670849 0.012000
v 27.336883 2.286940 0.012000
v 36.939220 4.034145 0.012000
v 27.297782 2.492279 0.012000
v 36.870246 4.396360 0.012000
v 27.255327 2.696950 0.012000
v 36.795356 4.757399 0.012000
v 27.209528 2.900899 0.012000
v 36.714568 5.117164 0.012000
v 27.160399 3.104072 0.012000
v 36.627904 5.475558 0.012000
v 27.107952 3.306413 0.012000
v 36.535388 5.832487 0.012000
v 27.052202 3.507870 0.012000
v 36.437045 6.187855 0.012000
v 26.993163 3.708387 0.012000
v 36.332900 6.541565 0.012000
v 26.930851 3.907911 0.012000
v 36.222982 6.893525 0.012000
v 26.865282 4.106389 0.012000
v 36.107320 7.243638 0.012000
v 26.796475 4.303768 0.012000
v 35.985946 7.591813 0.012000
v 26.724448 4.499994 0.012000
v 35.858890 7.937955 0.012000
v 26.649220 4.695016 0.012000
v 35.726188 8.281972 0.012000
v 26.570811 4.888781 0.012000
v 35.587875 8.623771 0.012000
v 26.489242 5.081237 0.012000
v 35.443988 8.963262 0.012000
v 26.404535 5.272332 0.012000
v 35.294566 9.300353 0.012000
v 26.316713 5.462016 0.012000
v 35.139649 9.634954 0.012000
v 26.225799 5.650238 0.012000
v 34.979277 9.966976 0.012000
v 26.131818 5.836947 0.012000
v 34.813495 10.296329 0.012000
v 26.034794 6.022093 0.012000
v 34.642346 10.622925 0.012000
v 25.934754 6.205627 0.012000
v 34.465876 10.946678 0.012000
v 25.831725 6.387500 0.012000
v 34.284132 11.267500 0.012000
v 25.725733 6.567663 0.012000
v 34.097164 11.585305 0.012000
v 25.616808 6.746067 0.012000
v 33.905021 11.900009 0.012000
v 25.504978 6.922665 0.012000
v 33.707755 12.211527 0.012000
v 25.390274 7.097410 0.012000
v 33.505418 12.519775 0.012000
v 25.272726 7.270254 0.012000
v 33.298064 12.824672 0.012000
v 25.152366 7.441153 0.012000
v 33.085750 13.126135 0.012000
v 25.029226 7.610059 0.012000
v 32.868532 13.424084 0.012000
v 24.903339 7.776927 0.012000
v 32.646468 13.718439 0.012000
v 24.774738 7.941714 0.012000
v 32.419617 14.009121 0.012000
v 24.643459 8.104374 0.012000
v 32.188041 14.296053 0.012000
v 24.509535 8.264865 0.012000
v 31.951801 14.579157 0.012000
v 24.373004 8.423143 0.012000
v 31.710960 14.858358 0.012000
v 24.233901 8.579166 0.012000
v 31.465584 15.133581 0.012000
v 24.092264 8.732892 0.012000
v 31.215737 15.404753 0.012000
v 23.948130 8.884280 0.012000
v 30.961487 15.671800 0.012000
v 23.801539 9.033289 0.012000
v 30.702901 15.934651 0.012000
v 23.652530 9.179880 0.012000
v 30.440050 16.193237 0.012000
v 23.501142 9.324014 0.012000
v 30.173003 16.447487 0.012000
v 23.347416 9.465651 0.012000
v 29.901831 16.697334 0.012000
v 23.191393 9.604754 0.012000
v 29.626608 16.942710 0.012000
v 23.033115 9.741285 0.012000
v 29.347407 17.183551 0.012000
v 22.872624 9.875209 0.012000
v 29.064303 17.419791 0.012000
v 22.709964 10.006488 0.012000
v 28.777371 17.651367 0.012000
v 22.545177 10.135089 0.012000
v 28.486689 17.878218 0.012000
v 22.378309 10.260976 0.012000
v 28.192334 18.100282 0.012000
v 22.209403 10.384116 0.012000
v 27.894385 18.317500 0.012000
v 22.038504 10.504476 0.012000
v 27.592922 18.529814 0.012000
v 21.865660 10.622024 0.012000
v 27.288025 18.737168 0.012000
v 21.690915 10.736728 0.012000
v 26.979777 18.939505 0.012000
v 21.514317 10.848558 0.012000
v 26.668259 19.136771 0.012000
v 21.335913 10.957483 0.012000
v 26.353555 19.328914 0.012000
v 21.155750 11.063475 0.012000
v 26.035750 19.515882 0.012000
v 20.973877 11.166504 0.012000
v 25.714928 19.697626 0.012000
v 20.790343 11.266544 0.012000
v 25.391175 19.874096 0.012000
v 20.605197 11.363568 0.012000
v 25.064579 20.045245 0.012000
v 20.418488 11.457549 0.012000
v 24.735226 20.211027 0.012000
v 20.230266 11.548463 0.012000
v 24.403204 20.371399 0.012000
v 20.040582 11.636285 0.012000
v 24.068603 20.526316 0.012000
v 19.849487 11.720992 0.012000
v 23.731512 20.675738 0.012000
v 19.657031 11.802561 0.012000
v 23.392021 20.819625 0.012000
v 19.463266 11.880970 0.012000
v 23.050222 20.957938 0.012000
v 19.268244 11.956198 0.012000
v 22.706205 21.090640 0.012000
v 19.072018 12.028225 0.012000
v 22.360063 21.217696 0.012000
v 18.874639 12.097032 0.012000
v 22.011888 21.339070 0.012000
v 18.676161 12.162601 0.012000
v 21.661775 21.454732 0.012000
v 18.476637 12.224913 0.012000
v 21.309815 21.564650 0.012000
v 18.276120 12.283952 0.012000
v 20.956105 21.668795 0.012000
v 18.074663 12.339702 0.012000
v 20.600737 21.767138 0.012000
v 17.872322 12.392149 0.012000
v 20.243808 21.859654 0.012000
v 17.669149 12.441278 0.012000
v 19.885414 21.946318 0.012000
v 17.465200 12.487077 0.012000
v 19.525649 22.027106 0.012000
v 17.260529 12.529532 0.012000
v 19.164610 22.101996 0.012000
v 17.055190 12.568633 0.012000
v 18.802395 22.170970 0.012000
v 16.849240 12.604369 0.012000
v 18.439099 22.234007 0.012000
v 16.642732 12.636730 0.012000
v 18.074821 22.291093 0.012000
v 16.435722 12.665708 0.012000
v 17.709658 22.342210 0.012000
v 16.228266 12.691295 0.012000
v 17.343707 22.387346 0.012000
v 16.020419 12.713485 0.012000
v 16.977066 22.426488 0.012000
v 15.812237 12.732271 0.012000
v 16.609834 22.459626 0.012000
v 15.603775 12.747648 0.012000
v 16.242110 22.486751 0.012000
v 15.395090 12.759612 0.012000
v 15.873990 22.507856 0.012000
v 15.186236 12.768160 0.012000
v 15.505575 22.522934 0.012000
v 14.977271 12.773290 0.012000
v 15.136962 22.531983 0.012000
v 14.768250 12.775000 0.012000
v 14.768250 22.535000 0.012000
v -14.768250 12.775000 0.012000
v -14.768250 22.535000 0.012000
v -14.977271 12.773290 0.012000
v -15.136962 22.531983 0.012000
v -15.186236 12.768160 0.012000
v -15.505575 22.522934 0.012000
v -15.395090 12.759612 0.012000
v -15.873990 22.507856 0.012000
v -15.603775 12.747648 0.012000
v -16.242110 22.486751 0.012000
v -15.812237 12.732271 0.012000
v -16.609834 22.459626 0.012000
v -16.020419 12.713485 0.012000
v -16.977066 22.426488 0.012000
v -16.228266 12.691295 0.012000
v -17.343707 22.387346 0.012000
v -16.435722 12.665708 0.012000
v -17.709658 22.342210 0.012000
v -16.642732 12.636730 0.012000
v -18.074821 22.291093 0.012000
v -16.849240 12.604369 0.012000
v -18.439099 22.234007 0.012000
v -17.055190 12.568633 0.012000
v -18.802395 22.170970 0.012000
v -17.260529 12.529532 0.012000
v -19.164610 22.101996 0.012000
v -17.465200 12.487077 0.012000
v -19.525649 22.027106 0.012000
v -17.669149 12.441278 0.012000
v -19.885414 21.946318 0.012000
v -17.872322 12.392149 0.012000
v -20.243808 21.859654 0.012000
v -18.074663 12.339702 0.012000
v -20.600737 21.767138 0.012000
v -18.276120 12.283952 0.012000
v -20.956105 21.668795 0.012000
v -18.476637 12.224913 0.012000
v -21.309815 21.564650 0.012000
v -18.676161 12.162601 0.012000
v -21.661775 21.454732 0.012000
v -18.874639 12.097032 0.012000
v -22.011888 21.339070 0.012000
v -19.072018 12.028225 0.012000
v -22.360063 21.217696 0.012000
v -19.268244 11.956198 0.012000
v -22.706205 21.090640 0.012000
v -19.463266 11.880970 0.012000
v -23.050222 20.957938 0.012000
v -19.657031 11.802561 0.012000
v -23.392021 20.819625 0.012000
v -19.849487 11.720992 0.012000
v -23.731512 20.675738 0.012000
v -20.040582 11.636285 0.012000
v -24.068603 20.526316 0.012000
v -20.230266 11.548463 0.012000
v -24.403204 20.371399 0.012000
v -20.418488 11.457549 0.012000
v -24.735226 20.211027 0.012000
v -20.605197 11.363568 0.012000
v -25.064579 20.045245 0.012000
v -20.790343 11.266544 0.012000
v -25.391175 19.874096 0.012000
v -20.973877 11.166504 0.012000
v -25.714928 19.697626 0.012000
v -21.155750 11.063475 0.012000
v -26.035750 19.515882 0.012000
v -21.335913 10.957483 0.012000
v -26.353555 19.328914 0.012000
v -21.514317 10.848558 0.012000
v -26.668259 19.136771 0.012000
v -21.690915 10.736728 0.012000
v -26.979777 18.939505 0.012000
v -21.865660 10.622024 0.012000
v -27.288025 18.737168 0.012000
v -22.038504 10.504476 0.012000
v -27.592922 18.529814 0.012000
v -22.209403 10.384116 0.012000
v -27.894385 18.317500 0.012000
v -22.378309 10.260976 0.012000
v -28.192334 18.100282 0.012000
v -22.545177 10.135089 0.012000
v -28.486689 17.878218 0.012000
v -22.709964 10.006488 0.012000
v -28.777371 17.651367 0.012000
v -22.872624 9.875209 0.012000
v -29.064303 17.419791 0.012000
v -23.033115 9.741285 0.012000
v -29.347407 17.183551 0.012000
v -23.191393 9.604754 0.012000
v -29.626608 16.942710 0.012000
v -23.347416 9.465651 0.012000
v -29.901831 16.697334 0.012000
v -23.501142 9.324014 0.012000
v -30.173003 16.447487 0.012000
v -23.652530 9.179880 0.012000
v -30.440050 16.193237 0.012000
v -23.801539 9.033289 0.012000
v -30.702901 15.934651 0.012000
v -23.948130 8.884280 0.012000
v -30.961487 15.671800 0.012000
v -24.092264 8.732892 0.012000
v -31.215737 15.404753 0.012000
v -24.233901 8.579166 0.012000
v -31.465584 15.133581 0.012000
v -24.373004 8.423143 0.012000
v -31.710960 14.858358 0.012000
v -24.509535 8.264865 0.012000
v -31.951801 14.579157 0.012000
v -24.643459 8.104374 0.012000
v -32.188041 14.296053 0.012000
v -24.774738 7.941714 0.012000
v -32.419617 14.009121 0.012000
v -24.903339 7.776927 0.012000
v -32.646468 13.718439 0.012000
v -25.029226 7.610059 0.012000
v -32.868532 13.424084 0.012000
v -25.152366 7.441153 0.012000
v -33.085750 13.126135 0.012000
v -25.272726 7.270254 0.012000
v -33.298064 12.824672 0.012000
v -25.390274 7.097410 0.012000
v -33.505418 12.519775 0.012000
v -25.504978 6.922665 0.012000
v -33.707755 12.211527 0.012000
v -25.616808 6.746067 0.012000
v -33.905021 11.900009 0.012000
v -25.725733 6.567663 0.012000
v -34.097164 11.585305 0.012000
v -25.831725 6.387500 0.012000
v -34.284132 11.267500 0.012000
v -25.934754 6.205627 0.012000
v -34.465876 10.946678 0.012000
v -26.034794 6.022093 0.012000
v -34.642346 10.622925 0.012000
v -26.131818 5.836947 0.012000
v -34.813495 10.296329 0.012000
v -26.225799 5.650238 0.012000
v -34.979277 9.966976 0.012000
v -26.316713 5.462016 0.012000
v -35.139649 9.634954 0.012000
v -26.404535 5.272332 0.012000
v -35.294566 9.300353 0.012000
v -26.489242 5.081237 0.012000
v -35.443988 8.963262 0.012000
v -26.570811 4.888781 0.012000
v -35.587875 8.623771 0.012000
v -26.649220 4.695016 0.012000
v -35.726188 8.281972 0.012000
v -26.724448 4.499994 0.012000
v -35.858890 7.937955 0.012000
v -26.796475 4.303768 0.012000
v -35.985946 7.591813 0.012000
v -26.865282 4.106389 0.012000
v -36.107320 7.243638 0.012000
v -26.930851 3.907911 0.012000
v -36.222982 6.893525 0.012000
v -26.993163 3.708387 0.012000
v -36.332900 6.541565 0.012000
v -27.052202 3.507870 0.012000
v -36.437045 6.187855 0.012000
v -27.107952 3.306413 0.012000
v -36.535388 5.832487 0.012000
v -27.160399 3.104072 0.012000
v -36.627904 5.475558 0.012000
v -27.209528 2.900899 0.012000
v -36.714568 5.117164 0.012000
v -27.255327 2.696950 0.012000
v -36.795356 4.757399 0.012000
v -27.297782 2.492279 0.012000
v -36.870246 4.396360 0.012000
v -27.336883 2.286940 0.012000
v -36.939220 4.034145 0.012000
v -27.372619 2.080990 0.012000
v -37.002257 3.670849 0.012000
v -27.404980 1.874482 0.012000
v -37.059343 3.306571 0.012000
v -27.433958 1.667472 0.012000
v -37.110460 2.941408 0.012000
v -27.459545 1.460016 0.012000
v -37.155596 2.575457 0.012000
v -27.481735 1.252169 0.012000
v -37.194738 2.208816 0.012000
v -27.500521 1.043987 0.012000
v -37.227876 1.841584 0.012000
v -27.515898 0.835525 0.012000
v -37.255001 1.473860 0.012000
v -27.527862 0.626840 0.012000
v -37.276106 1.105740 0.012000
v -27.536410 0.417986 0.012000
v -37.291184 0.737325 0.012000
v -27.541540 0.209021 0.012000
v -37.300233 0.368712 0.012000
v -27.543250 0.000000 0.012000
v -37.303250 0.000000 0.012000
v -27.541540 -0.209021 0.012000
v -37.300233 -0.368712 0.012000
v -27.536410 -0.417986 0.012000
v -37.291184 -0.737325 0.012000
v -27.527862 -0.626840 0.012000
v -37.276106 -1.105740 0.012000
v -27.515898 -0.835525 0.012000
v -37.255001 -1.473860 0.012000
v -27.500521 -1.043987 0.012000
v -37.227876 -1.841584 0.012000
v -27.481735 -1.252169 0.012000
v -37.194738 -2.208816 0.012000
v -27.459545 -1.460016 0.012000
v -37.155596 -2.575457 0.012000
v -27.433958 -1.667472 0.012000
v -37.110460 -2.941408 0.012000
v -27.404980 -1.874482 0.012000
v -37.059343 -3.306571 0.012000
v -27.372619 -2.080990 0.012000
v -37.002257 -3.670849 0.012000
v -27.336883 -2.286940 0.012000
v -36.939220 -4.034145 0.012000
v -27.297782 -2.492279 0.012000
v -36.870246 -4.396360 0.012000
v -27.255327 -2.696950 0.012000
v -36.795356 -4.757399 0.012000
v -27.209528 -2.900899 0.012000
v -36.714568 -5.117164 0.012000
v -27.160399 -3.104072 0.012000
v -36.627904 -5.475558 0.012000
v -27.107952 -3.306413 0.012000
v -36.535388 -5.832487 0.012000
v -27.052202 -3.507870 0.012000
v -36.437045 -6.187855 0.012000
v -26.993163 -3.708387 0.012000
v -36.332900 -6.541565 0.012000
v -26.930851 -3.907911 0.012000
v -36.222982 -6.893525 0.012000
v -26.865282 -4.106389 0.012000
v -36.107320 -7.243638 0.012000
v -26.796475 -4.303768 0.012000
v -35.985946 -7.591813 0.012000
v -26.724448 -4.499994 0.012000
v -35.858890 -7.937955 0.012000
v -26.649220 -4.695016 0.012000
v -35.726188 -8.281972 0.012000
v -26.570811 -4.888781 0.012000
v -35.587875 -8.623771 0.012000
v -26.489242 -5.081237 0.012000
v -35.443988 -8.963262 0.012000
v -26.404535 -5.272332 0.012000
v -35.294566 -9.300353 0.012000
v -26.316713 -5.462016 0.012000
v -35.139649 -9.634954 0.012000
v -26.225799 -5.650238 0.012000
v -34.979277 -9.966976 0.012000
v -26.131818 -5.836947 0.012000
v -34.813495 -10.296329 0.012000
v -26.034794 -6.022093 0.012000
v -34.642346 -10.622925 0.012000
v -25.934754 -6.205627 0.012000
v -34.465876 -10.946678 0.012000
v -25.831725 -6.387500 0.012000
v -34.284132 -11.267500 0.012000
v -25.725733 -6.567663 0.012000
v -34.097164 -11.585305 0.012000
v -25.616808 -6.746067 0.012000
v -33.905021 -11.900009 0.012000
v -25.504978 -6.922665 0.012000
v -33.707755 -12.211527 0.012000
v -25.390274 -7.097410 0.012000
v -33.505418 -12.519775 0.012000
v -25.272726 -7.270254 0.012000
v -33.298064 -12.824672 0.012000
v -25.152366 -7.441153 0.012000
v -33.085750 -13.126135 0.012000
v -25.029226 -7.610059 0.012000
v -32.868532 -13.424084 0.012000
v -24.903339 -7.776927 0.012000
v -32.646468 -13.718439 0.012000
v -24.774738 -7.941714 0.012000
v -32.419617 -14.009121 0.012000
v -24.643459 -8.104374 0.012000
v -32.188041 -14.296053 0.012000
v -24.509535 -8.264865 0.012000
v -31.951801 -14.579157 0.012000
v -24.373004 -8.423143 0.012000
v -31.710960 -14.858358 0.012000
v -24.233901 -8.579166 0.012000
v -31.465584 -15.133581 0.012000
v -24.092264 -8.732892 0.012000
v -31.215737 -15.404753 0.012000
v -23.948130 -8.884280 0.012000
v -30.961487 -15.671800 0.012000
v -23.801539 -9.033289 0.012000
v -30.702901 -15.934651 0.012000
v -23.652530 -9.179880 0.012000
v -30.440050 -16.193237 0.012000
v -23.501142 -9.324014 0.012000
v -30.173003 -16.447487 0.012000
v -23.347416 -9.465651 0.012000
v -29.901831 -16.697334 0.012000
v -23.191393 -9.604754 0.012000
v -29.626608 -16.942710 0.012000
v -23.033115 -9.741285 0.012000
v -29.347407 -17.183551 0.012000
v -22.872624 -9.875209 0.012000
v -29.064303 -17.419791 0.012000
v -22.709964 -10.006488 0.012000
v -28.777371 -17.651367 0.012000
v -22.545177 -10.135089 0.012000
v -28.486689 -17.878218 0.012000
v -22.378309 -10.260976 0.012000
v -28.192334 -18.100282 0.012000
v -22.209403 -10.384116 0.012000
v -27.894385 -18.317500 0.012000
v -22.038504 -10.504476 0.012000
v -27.592922 -18.529814 0.012000
v -21.865660 -10.622024 0.012000
v -27.288025 -18.737168 0.012000
v -21.690915 -10.736728 0.012000
v -26.979777 -18.939505 0.012000
v -21.514317 -10.848558 0.012000
v -26.668259 -19.136771 0.012000
v -21.335913 -10.957483 0.012000
v -26.353555 -19.328914 0.012000
v -21.155750 -11.063475 0.012000
v -26.035750 -19.515882 0.012000
v -20.973877 -11.166504 0.012000
v -25.714928 -19.697626 0.012000
v -20.790343 -11.266544 0.012000
v -25.391175 -19.874096 0.012000
v -20.605197 -11.363568 0.012000
v -25.064579 -20.045245 0.012000
v -20.418488 -11.457549 0.012000
v -24.735226 -20.211027 0.012000
v -20.230266 -11.548463 0.012000
v -24.403204 -20.371399 0.012000
v -20.040582 -11.636285 0.012000
v -24.068603 -20.526316 0.012000
v -19.849487 -11.720992 0.012000
v -23.731512 -20.675738 0.012000
v -19.657031 -11.802561 0.012000
v -23.392021 -20.819625 0.012000
v -19.463266 -11.880970 0.012000
v -23.050222 -20.957938 0.012000
v -19.268244 -11.956198 0.012000
v -22.706205 -21.090640 0.012000
v -19.072018 -12.028225 0.012000
v -22.360063 -21.217696 0.012000
v -18.874639 -12.097032 0.012000
v -22.011888 -21.339070 0.012000
v -18.676161 -12.162601 0.012000
v -21.661775 -21.454732 0.012000
v -18.476637 -12.224913 0.012000
v -21.309815 -21.564650 0.012000
v -18.276120 -12.283952 0.012000
v -20.956105 -21.668795 0.012000
v -18.074663 -12.339702 0.012000
v -20.600737 -21.767138 0.012000
v -17.872322 -12.392149 0.012000
v -20.243808 -21.859654 0.012000
v -17.669149 -12.441278 0.012000
v -19.885414 -21.946318 0.012000
v -17.465200 -12.487077 0.012000
v -19.525649 -22.027106 0.012000
v -17.260529 -12.529532 0.012000
v -19.164610 -22.101996 0.012000
v -17.055190 -12.568633 0.012000
v -18.802395 -22.170970 0.012000
v -16.849240 -12.604369 0.012000
v -18.439099 -22.234007 0.012000
v -16.642732 -12.636730 0.012000
v -18.074821 -22.291093 0.012000
v -16.435722 -12.665708 0.012000
v -17.709658 -22.342210 0.012000
v -16.228266 -12.691295 0.012000
v -17.343707 -22.387346 0.012000
v -16.020419 -12.713485 0.012000
v -16.977066 -22.426488 0.012000
v -15.812237 -12.732271 0.012000
v -16.609834 -22.459626 0.012000
v -15.603775 -12.747648 0.012000
v -16.242110 -22.486751 0.012000
v -15.395090 -12.759612 0.012000
v -15.873990 -22.507856 0.012000
v -15.186236 -12.768160 0.012000
v -15.505575 -22.522934 0.012000
v -14.977271 -12.773290 0.012000
v -15.136962 -22.531983 0.012000
v -14.768250 -12.775000 0.012000
v -14.768250 -22.535000 0.012000
f 1 2 3
f 1 3 4
f 5 6 7
f 5 7 8
f 9 12 11
f 9 10 12
f 11 14 13
f 11 12 14
f 13 16 15
f 13 14 16
f 15 18 17
f 15 16 18
f 17 20 19
f 17 18 20
f 19 22 21
f 19 20 22
f 21 24 23
f 21 22 24
f 23 26 25
f 23 24 26
f 25 28 27
f 25 26 28
f 27 30 29
f 27 28 30
f 29 32 31
f 29 30 32
f 31 34 33
f 31 32 34
f 33 36 35
f 33 34 36
f 35 38 37
f 35 36 38
f 37 40 39
f 37 38 40
f 39 42 41
f 39 40 42
f 41 44 43
f 41 42 44
f 43 46 45
f 43 44 46
f 45 48 47
f 45 46 48
f 47 50 49
f 47 48 50
f 49 52 51
f 49 50 52
f 51 54 53
f 51 52 54
f 53 56 55
f 53 54 56
f 55 58 57
f 55 56 58
f 57 60 59
f 57 58 60
f 59 62 61
f 59 60 62
f 61 64 63
f 61 62 64
f 63 66 65
f 63 64 66
f 65 68 67
f 65 66 68
f 67 70 69
f 67 68 70
f 69 72 71
f 69 70 72
f 71 74 73
f 71 72 74
f 73 76 75
f 73 74 76
f 75 78 77
f 75 76 78
f 77 80 79
f 77 78 80
f 79 82 81
f 79 80 82
f 81 84 83
f 81 82 84
f 83 86 85
f 83 84 86
f 85 88 87
f 85 86 88
f 87 90 89
f 87 88 90
f 89 92 91
f 89 90 92
f 91 94 93
f 91 92 94
f 93 96 95
f 93 94 96
f 95 98 97
f 95 96 98
f 97 100 99
f 97 98 100
f 99 102 101
f 99 100 102
f 101 104 103
f 101 102 104
f 103 106 105
f 103 104 106
f 105 108 107
f 105 106 108
f 107 110 109
f 107 108 110
f 109 112 111
f 109 110 112
f 111 114 113
f 111 112 114
f 113 116 115
f 113 114 116
f 115 118 117
f 115 116 118
f 117 120 119
f 117 118 120
f 119 122 121
f 119 120 122
f 121 124 123
f 121 122 124
f 123 126 125
f 123 124 126
f 125 128 127
f 125 126 128
f 127 130 129
f 127 128 130
f 129 132 131
f 129 130 132
f 131 134 133
f 131 132 134
f 133 136 135
f 133 134 136
f 135 138 137
f 135 136 138
f 137 140 139
f 137 138 140
f 139 142 141
f 139 140 142
f 141 144 143
f 141 142 144
f 143 146 145
f 143 144 146
f 145 148 147
f 145 146 148
f 147 150 149
f 147 148 150
f 149 152 151
f 149 150 152
f 151 154 153
f 151 152 154
f 153 156 155
f 153 154 156
f 155 158 157
f 155 156 158
f 157 160 159
f 157 158 160
f 159 162 161
f 159 160 162
f 161 164 163
f 161 162 164
f 163 166 165
f 163 164 166
f 165 168 167
f 165 166 168
f 167 170 169
f 167 168 170
f 169 172 171
f 169 170 172
f 171 174 173
f 171 172 174
f 173 176 175
f 173 174 176
f 175 178 177
f 175 176 178
f 177 180 179
f 177 178 180
f 179 182 181
f 179 180 182
f 181 184 183
f 181 182 184
f 183 186 185
f 183 184 186
f 185 188 187
f 185 186 188
f 187 190 189
f 187 188 190
f 189 192 191
f 189 190 192
f 191 194 193
f 191 192 194
f 193 196 195
f 193 194 196
f 195 198 197
f 195 196 198
f 197 200 199
f 197 198 200
f 199 202 201
f 199 200 202
f 201 204 203
f 201 202 204
f 203 206 205
f 203 204 206
f 205 208 207
f 205 206 208
f 207 210 209
f 207 208 210
f 209 212 211
f 209 210 212
f 211 214 213
f 211 212 214
f 213 216 215
f 213 214 216
f 215 218 217
f 215 216 218
f 217 220 219
f 217 218 220
f 219 222 221
f 219 220 222
f 221 224 223
f 221 222 224
f 223 226 225
f 223 224 226
f 225 228 227
f 225 226 228
f 227 230 229
f 227 228 230
f 229 232 231
f 229 230 232
f 231 234 233
f 231 232 234
f 233 236 235
f 233 234 236
f 235 238 237
f 235 236 238
f 237 240 239
f 237 238 240
f 239 242 241
f 239 240 242
f 241 244 243
f 241 242 244
f 243 246 245
f 243 244 246
f 245 248 247
f 245 246 248
f 247 250 249
f 247 248 250
f 249 252 251
f 249 250 252
f 251 254 253
f 251 252 254
f 253 256 255
f 253 254 256
f 255 258 257
f 255 256 258
f 257 260 259
f 257 258 260
f 259 262 261
f 259 260 262
f 261 264 263
f 261 262 264
f 263 266 265
f 263 264 266
f 265 268 267
f 265 266 268
f 267 270 269
f 267 268 270
f 269 272 271
f 269 270 272
f 271 274 273
f 271 272 274
f 273 276 275
f 273 274 276
f 275 278 277
f 275 276 278
f 277 280 279
f 277 278 280
f 279 282 281
f 279 280 282
f 281 284 283
f 281 282 284
f 283 286 285
f 283 284 286
f 285 288 287
f 285 286 288
f 287 290 289
f 287 288 290
f 289 292 291
f 289 290 292
f 291 294 293
f 291 292 294
f 293 296 295
f 293 294 296
f 295 298 297
f 295 296 298
f 297 300 299
f 297 298 300
f 299 302 301
f 299 300 302
f 301 304 303
f 301 302 304
f 303 306 305
f 303 304 306
f 305 308 307
f 305 306 308
f 307 310 309
f 307 308 310
f 309 312 311
f 309 310 312
f 311 314 313
f 311 312 314
f 313 316 315
f 313 314 316
f 315 318 317
f 315 316 318
f 317 320 319
f 317 318 320
f 319 322 321
f 319 320 322
f 321 324 323
f 321 322 324
f 323 326 325
f 323 324 326
f 325 328 327
f 325 326 328
f 327 330 329
f 327 328 330
f 329 332 331
f 329 330 332
f 331 334 333
f 331 332 334
f 333 336 335
f 333 334 336
f 335 338 337
f 335 336 338
f 337 340 339
f 337 338 340
f 339 342 341
f 339 340 342
f 341 344 343
f 341 342 344
f 343 346 345
f 343 344 346
f 345 348 347
f 345 346 348
f 347 350 349
f 347 348 350
f 349 352 351
f 349 350 352
f 351 354 353
f 351 352 354
f 353 356 355
f 353 354 356
f 355 358 357
f 355 356 358
f 357 360 359
f 357 358 360
f 359 362 361
f 359 360 362
f 361 364 363
f 361 362 364
f 363 366 365
f 363 364 366
f 365 368 367
f 365 366 368
f 367 370 369
f 367 368 370
f 369 372 371
f 369 370 372
f 371 374 373
f 371 372 374
f 373 376 375
f 373 374 376
f 375 378 377
f 375 376 378
f 377 380 379
f 377 378 380
f 379 382 381
f 379 380 382
f 381 384 383
f 381 382 384
f 383 386 385
f 383 384 386
f 385 388 387
f 385 386 388
f 387 390 389
f 387 388 390
f 389 392 391
f 389 390 392
f 391 394 393
f 391 392 394
f 395 398 397
f 395 396 398
f 397 400 399
f 397 398 400
f 399 402 401
f 399 400 402
f 401 404 403
f 401 402 404
f 403 406 405
f 403 404 406
f 405 408 407
f 405 406 408
f 407 410 409
f 407 408 410
f 409 412 411
f 409 410 412
f 411 414 413
f 411 412 414
f 413 416 415
f 413 414 416
f 415 418 417
f 415 416 418
f 417 420 419
f 417 418 420
f 419 422 421
f 419 420 422
f 421 424 423
f 421 422 424
f 423 426 425
f 423 424 426
f 425 428 427
f 425 426 428
f 427 430 429
f 427 428 430
f 429 432 431
f 429 430 432
f 431 434 433
f 431 432 434
f 433 436 435
f 433 434 436
f 435 438 437
f 435 436 438
f 437 440 439
f 437 438 440
f 439 442 441
f 439 440 442
f 441 444 443
f 441 442 444
f 443 446 445
f 443 444 446
f 445 448 447
f 445 446 448
f 447 450 449
f 447 448 450
f 449 452 451
f 449 450 452
f 451 454 453
f 451 452 454
f 453 456 455
f 453 454 456
f 455 458 457
f 455 456 458
f 457 460 459
f 457 458 460
f 459 462 461
f 459 460 462
f 461 464 463
f 461 462 464
f 463 466 465
f 463 464 466
f 465 468 467
f 465 466 468
f 467 470 469
f 467 468 470
f 469 472 471
f 469 470 472
f 471 474 473
f 471 472 474
f 473 476 475
f 473 474 476
f 475 478 477
f 475 476 478
f 477 480 479
f 477 478 480
f 479 482 481
f 479 480 482
f 481 484 483
f 481 482 484
f 483 486 485
f 483 484 486
f 485 488 487
f 485 486 488
f 487 490 489
f 487 488 490
f 489 492 491
f 489 490 492
f 491 494 493
f 491 492 494
f 493 496 495
f 493 494 496
f 495 498 497
f 495 496 498
f 497 500 499
f 497 498 500
f 499 502 501
f 499 500 502
f 501 504 503
f 501 502 504
f 503 506 505
f 503 504 506
f 505 508 507
f 505 506 508
f 507 510 509
f 507 508 510
f 509 512 511
f 509 510 512
f 511 514 513
f 511 512 514
f 513 516 515
f 513 514 516
f 515 518 517
f 515 516 518
f 517 520 519
f 517 518 520
f 519 522 521
f 519 520 522
f 521 524 523
f 521 522 524
f 523 526 525
f 523 524 526
f 525 528 527
f 525 526 528
f 527 530 529
f 527 528 530
f 529 532 531
f 529 530 532
f 531 534 533
f 531 532 534
f 533 536 535
f 533 534 536
f 535 538 537
f 535 536 538
f 537 540 539
f 537 538 540
f 539 542 541
f 539 540 542
f 541 544 543
f 541 542 544
f 543 546 545
f 543 544 546
f 545 548 547
f 545 546 548
f 547 550 549
f 547 548 550
f 549 552 551
f 549 550 552
f 551 554 553
f 551 552 554
f 553 556 555
f 553 554 556
f 555 558 557
f 555 556 558
f 557 560 559
f 557 558 560
f 559 562 561
f 559 560 562
f 561 564 563
f 561 562 564
f 563 566 565
f 563 564 566
f 565 568 567
f 565 566 568
f 567 570 569
f 567 568 570
f 569 572 571
f 569 570 572
f 571 574 573
f 571 572 574
f 573 576 575
f 573 574 576
f 575 578 577
f 575 576 578
f 577 580 579
f 577 578 580
f 579 582 581
f 579 580 582
f 581 584 583
f 581 582 584
f 583 586 585
f 583 584 586
f 585 588 587
f 585 586 588
f 587 590 589
f 587 588 590
f 589 592 591
f 589 590 592
f 591 594 593
f 591 592 594
f 593 596 595
f 593 594 596
f 595 598 597
f 595 596 598
f 597 600 599
f 597 598 600
f 599 602 601
f 599 600 602
f 601 604 603
f 601 602 604
f 603 606 605
f 603 604 606
f 605 608 607
f 605 606 608
f 607 610 609
f 607 608 610
f 609 612 611
f 609 610 612
f 611 614 613
f 611 612 614
f 613 616 615
f 613 614 616
f 615 618 617
f 615 616 618
f 617 620 619
f 617 618 620
f 619 622 621
f 619 620 622
f 621 624 623
f 621 622 624
f 623 626 625
f 623 624 626
f 625 628 627
f 625 626 628
f 627 630 629
f 627 628 630
f 629 632 631
f 629 630 632
f 631 634 633
f 631 632 634
f 633 636 635
f 633 634 636
f 635 638 637
f 635 636 638
f 637 640 639
f 637 638 640
f 639 642 641
f 639 640 642
f 641 644 643
f 641 642 644
f 643 646 645
f 643 644 646
f 645 648 647
f 645 646 648
f 647 650 649
f 647 648 650
f 649 652 651
f 649 650 652
f 651 654 653
f 651 652 654
f 653 656 655
f 653 654 656
f 655 658 657
f 655 656 658
f 657 660 659
f 657 658 660
f 659 662 661
f 659 660 662
f 661 664 663
f 661 662 664
f 663 666 665
f 663 664 666
f 665 668 667
f 665 666 668
f 667 670 669
f 667 668 670
f 669 672 671
f 669 670 672
f 671 674 673
f 671 672 674
f 673 676 675
f 673 674 676
f 675 678 677
f 675 676 678
f 677 680 679
f 677 678 680
f 679 682 681
f 679 680 682
f 681 684 683
f 681 682 684
f 683 686 685
f 683 684 686
f 685 688 687
f 685 686 688
f 687 690 689
f 687 688 690
f 689 692 691
f 689 690 692
f 691 694 693
f 691 692 694
f 693 696 695
f 693 694 696
f 695 698 697
f 695 696 698
f 697 700 699
f 697 698 700
f 699 702 701
f 699 700 702
f 701 704 703
f 701 702 704
f 703 706 705
f 703 704 706
f 705 708 707
f 705 706 708
f 707 710 709
f 707 708 710
f 709 712 711
f 709 710 712
f 711 714 713
f 711 712 714
f 713 716 715
f 713 714 716
f 715 718 717
f 715 716 718
f 717 720 719
f 717 718 720
f 719 722 721
f 719 720 722
f 721 724 723
f 721 722 724
f 723 726 725
f 723 724 726
f 725 728 727
f 725 726 728
f 727 730 729
f 727 728 730
f 729 732 731
f 729 730 732
f 731 734 733
f 731 732 734
f 733 736 735
f 733 734 736
f 735 738 737
f 735 736 738
f 737 740 739
f 737 738 740
f 739 742 741
f 739 740 742
f 741 744 743
f 741 742 744
f 743 746 745
f 743 744 746
f 745 748 747
f 745 746 748
f 747 750 749
f 747 748 750
f 749 752 751
f 749 750 752
f 751 754 753
f 751 752 754
f 753 756 755
f 753 754 756
f 755 758 757
f 755 756 758
f 757 760 759
f 757 758 760
f 759 762 761
f 759 760 762
f 761 764 763
f 761 762 764
f 763 766 765
f 763 764 766
f 765 768 767
f 765 766 768
f 767 770 769
f 767 768 770
f 769 772 771
f 769 770 772
f 771 774 773
f 771 772 774
f 773 776 775
f 773 774 776
f 775 778 777
f 775 776 778
f 777 780 779
f 777 778 780
